<svg width="24" height="24" viewBox="0 0 24 24" fill="none" xmlns="http://www.w3.org/2000/svg">
<g clip-path="url(#clip0_1_4)">
<path d="M13.01 13.188C13.627 14.801 14.082 16.461 14.371 18.161C12.139 19.022 9.736 18.605 7.943 17.206C9.256 15.148 10.932 13.808 13.01 13.188ZM12.48 11.902C12.337 11.582 12.189 11.264 12.033 10.947C10.18 11.531 7.965 11.826 5.4 11.83L5.39 12C5.39 13.604 5.966 15.077 6.921 16.223C8.369 14.05 10.227 12.607 12.48 11.902ZM9.018 6.11C7.32 6.973 6.049 8.544 5.586 10.435C7.822 10.419 9.756 10.174 11.377 9.698C10.691 8.469 9.906 7.272 9.018 6.11ZM16.029 6.773C14.912 5.911 13.518 5.391 12 5.391C11.439 5.391 10.898 5.469 10.379 5.601C11.252 6.775 12.027 7.985 12.705 9.226C14.117 8.628 15.225 7.809 16.029 6.773ZM24 5V19C24 21.761 21.762 24 19 24H5C2.238 24 0 21.761 0 19V5C0 2.239 2.238 0 5 0H19C21.762 0 24 2.239 24 5ZM20 12C20 7.582 16.418 4 12 4C7.582 4 4 7.582 4 12C4 16.418 7.582 20 12 20C16.418 20 20 16.418 20 12ZM13.344 10.458C13.524 10.829 13.692 11.203 13.856 11.578C15.295 11.33 16.874 11.345 18.59 11.627C18.506 10.149 17.942 8.8 17.043 7.737C16.121 8.886 14.883 9.792 13.344 10.458ZM14.389 12.895C14.948 14.391 15.377 15.925 15.668 17.493C17.168 16.488 18.229 14.883 18.522 13.026C17.016 12.765 15.639 12.719 14.389 12.895Z" fill="white"/>
</g>
<defs>
<clipPath id="clip0_1_4">
<rect width="24" height="24" fill="white"/>
</clipPath>
</defs>
</svg>
